<svg width="14" height="13" viewBox="0 0 14 13" fill="none" xmlns="http://www.w3.org/2000/svg">
<path d="M0.999973 4.50894V4.49994C0.99996 3.611 1.26323 2.74197 1.75657 2.00249C2.24991 1.26301 2.95122 0.686211 3.77201 0.344865C4.5928 0.00351927 5.49631 -0.0870801 6.36853 0.0844973C7.24076 0.256075 8.04263 0.682142 8.67297 1.30894C9.16893 1.06416 9.7229 0.961235 10.2737 1.01155C10.8245 1.06187 11.3506 1.26347 11.794 1.59407C12.2374 1.92467 12.5808 2.37141 12.7862 2.88493C12.9916 3.39845 13.051 3.95875 12.958 4.50394C13.0948 4.51664 13.2276 4.55741 13.3479 4.6237C13.4683 4.68999 13.5737 4.78038 13.6576 4.88923C13.7415 4.99808 13.8021 5.12305 13.8355 5.25634C13.8689 5.38963 13.8745 5.52839 13.852 5.66394C13.4 8.38294 12.282 10.1039 10.5 10.8279V11.4999C10.5 11.8978 10.3419 12.2793 10.0606 12.5606C9.77933 12.8419 9.3978 12.9999 8.99997 12.9999H4.99997C4.60215 12.9999 4.22062 12.8419 3.93931 12.5606C3.65801 12.2793 3.49997 11.8978 3.49997 11.4999V10.8279C1.71797 10.1039 0.599973 8.38294 0.147973 5.66394C0.126159 5.53199 0.131037 5.397 0.162318 5.26696C0.193599 5.13692 0.250648 5.01448 0.330088 4.90688C0.409528 4.79928 0.509745 4.70871 0.624809 4.64053C0.739872 4.57235 0.867444 4.52795 0.999973 4.50994V4.50894ZM1.99997 4.49994H2.99997C2.99997 3.8369 3.26337 3.20102 3.73221 2.73218C4.20105 2.26334 4.83693 1.99994 5.49997 1.99994C6.16301 1.99994 6.7989 2.26334 7.26774 2.73218C7.73658 3.20102 7.99997 3.8369 7.99997 4.49994H8.99997C8.99997 3.57169 8.63122 2.68145 7.97485 2.02507C7.31847 1.36869 6.42823 0.999944 5.49997 0.999944C4.57172 0.999944 3.68148 1.36869 3.0251 2.02507C2.36872 2.68145 1.99997 3.57169 1.99997 4.49994ZM3.99997 4.49994H6.99997C6.99997 4.10212 6.84194 3.72059 6.56063 3.43928C6.27933 3.15798 5.8978 2.99994 5.49997 2.99994C5.10215 2.99994 4.72062 3.15798 4.43931 3.43928C4.15801 3.72059 3.99997 4.10212 3.99997 4.49994ZM10.866 4.49994H11.937C12.0125 4.20442 12.0195 3.89555 11.9576 3.59689C11.8956 3.29823 11.7663 3.01766 11.5795 2.77654C11.3927 2.53543 11.1533 2.34014 10.8795 2.20556C10.6058 2.07098 10.305 2.00065 9.99997 1.99994C9.75997 1.99994 9.53197 2.04194 9.31997 2.11894C9.49697 2.40294 9.64297 2.70894 9.75497 3.02994C9.94544 2.9827 10.1456 2.99243 10.3306 3.05792C10.5156 3.12341 10.6772 3.24177 10.7956 3.39832C10.9139 3.55488 10.9836 3.74273 10.9961 3.93856C11.0087 4.1344 10.9634 4.3296 10.866 4.49994ZM9.49997 10.9999H4.49997V11.4999C4.49997 11.6326 4.55265 11.7597 4.64642 11.8535C4.74019 11.9473 4.86736 11.9999 4.99997 11.9999H8.99997C9.13258 11.9999 9.25976 11.9473 9.35353 11.8535C9.4473 11.7597 9.49997 11.6326 9.49997 11.4999V10.9999ZM4.14797 9.99994H9.85197C11.438 9.48994 12.442 8.04794 12.866 5.49994H1.13397C1.55797 8.04794 2.56197 9.48994 4.14797 9.99994Z" fill="black"/>
</svg>
