<svg width="74" height="77" viewBox="0 0 74 77" fill="none" xmlns="http://www.w3.org/2000/svg">
<path d="M44.975 21.725H44.875H39.625H39.525V21.625V21.2418V21.2414C39.5288 20.2844 39.2642 19.3455 38.7613 18.5313C38.2584 17.7172 37.5374 17.0603 36.68 16.6352L36.6797 16.6351L29.6318 13.1151C27.8673 12.2393 26.3835 10.8869 25.3483 9.21097C24.3132 7.53516 23.7682 5.60294 23.775 3.63325C23.775 3.63313 23.775 3.63302 23.775 3.6329M44.975 21.725L23.875 3.63325L23.775 3.6329M44.975 21.725V21.625V21.2421M44.975 21.725V21.2421M23.775 3.6329L23.775 0.625V0.525H23.875H29.125H29.225V0.625V3.63325V3.63358C29.2218 4.59044 29.4866 5.52907 29.9895 6.34316C30.4923 7.15725 31.2131 7.81427 32.0701 8.23981L32.0703 8.23992L39.1156 11.7599M23.775 3.6329L39.1156 11.7599M44.975 21.2421C44.9813 19.272 44.4358 17.3396 43.4002 15.6638C42.3646 13.9879 40.8803 12.6355 39.1156 11.7599M44.975 21.2421L39.1156 11.7599M0.25 71.4H0.15V71.5V76.75V76.85H0.25H73.75H73.85V76.75V71.5V71.4H73.75H0.25ZM16 26.775H15.9999C14.5815 26.7764 13.2215 27.3405 12.2185 28.3435C11.2155 29.3465 10.6514 30.7065 10.65 32.1249V32.125V53.125V53.1251C10.6542 56.6313 12.0489 59.9926 14.5281 62.4719C17.0074 64.9511 20.3687 66.3458 23.8749 66.35H23.875H44.875C48.3813 66.3458 51.7426 64.9511 54.2219 62.4719C56.7011 59.9926 58.0958 56.6313 58.1 53.1251V53.125V50.6H59.3125C62.4719 50.6 65.5019 49.3449 67.7359 47.1109C69.9699 44.8769 71.225 41.8469 71.225 38.6875C71.225 35.5281 69.9699 32.4981 67.7359 30.2641C65.5019 28.0301 62.4719 26.775 59.3125 26.775H16ZM52.65 53.1249C52.6479 55.1864 51.8281 57.1628 50.3705 58.6205C48.9128 60.0781 46.9364 60.8979 44.8749 60.9H23.8751C21.8136 60.8979 19.8372 60.0781 18.3795 58.6205C16.9219 57.1628 16.1021 55.1864 16.1 53.1249V32.225H52.65V53.1249ZM59.3125 45.15H58.1V32.225H59.3125C61.0265 32.225 62.6702 32.9059 63.8822 34.1178C65.0941 35.3298 65.775 36.9735 65.775 38.6875C65.775 40.4015 65.0941 42.0452 63.8822 43.2572C62.6702 44.4691 61.0265 45.15 59.3125 45.15Z" fill="url(#paint0_linear_20_62)" stroke="url(#paint1_linear_20_62)" stroke-width="0.2"/>
<defs>
<linearGradient id="paint0_linear_20_62" x1="37" y1="0.625" x2="37" y2="76.75" gradientUnits="userSpaceOnUse">
<stop stop-color="#AE1010" stop-opacity="0.88"/>
<stop offset="1" stop-color="#AE1010" stop-opacity="0"/>
</linearGradient>
<linearGradient id="paint1_linear_20_62" x1="37" y1="0.625" x2="37" y2="76.75" gradientUnits="userSpaceOnUse">
<stop stop-color="#AE1010" stop-opacity="0.88"/>
<stop offset="1" stop-color="#AE1010" stop-opacity="0"/>
</linearGradient>
</defs>
</svg>
