<svg width="50" height="62" viewBox="0 0 50 62" fill="none" xmlns="http://www.w3.org/2000/svg">
<path d="M8 2.13379V1.47242L7.36368 1.65273C3.78867 2.66575 1.16666 5.94939 1.16666 9.85421L1.16666 52.1428C1.16666 52.1428 1.16666 52.1429 1.16666 52.143C1.16628 53.2621 1.38638 54.3704 1.81438 55.4045C2.24241 56.4387 2.86999 57.3784 3.66126 58.1699C4.45254 58.9615 5.392 59.5894 6.426 60.0178C7.46 60.4462 8.56827 60.6667 9.6875 60.6667H40.3125C41.4315 60.6667 42.5395 60.4463 43.5733 60.0181C44.6071 59.5899 45.5464 58.9622 46.3376 58.171C47.1289 57.3798 47.7565 56.4404 48.1847 55.4067C48.6129 54.3729 48.8333 53.2648 48.8333 52.1459V9.85421C48.8333 8.73523 48.6129 7.62722 48.1847 6.59343C47.7565 5.55963 47.1289 4.6203 46.3376 3.82907C45.5464 3.03784 44.6071 2.4102 43.5733 1.98198C42.5395 1.55377 41.4315 1.33337 40.3125 1.33337H33.75H33.25V1.83337V6.20837V6.70837H33.75H40.3125C42.0489 6.70837 43.4583 8.11785 43.4583 9.85421V52.14C43.4583 53.8764 42.0489 55.2859 40.3125 55.2859H9.6875C7.95114 55.2859 6.54167 53.8764 6.54167 52.14V9.85421C6.54167 8.82223 7.03396 7.91207 7.8 7.33754L8 7.18754V6.93754V2.13379ZM31.3333 1.83337V1.33337H30.8333H10.4167H9.91667V1.83337V25.575V25.5897L9.91753 25.6044L9.93794 25.9515L9.9389 25.9678L9.94092 25.984C10.0944 27.2155 10.9136 28.0281 11.8882 28.3655C12.8416 28.6956 13.9748 28.5848 14.8447 27.9679L20.6303 24.4848L26.5685 28.0739L26.8031 28.2227L26.8184 28.2324L26.8344 28.241C27.7058 28.7087 28.8187 28.6842 29.7115 28.2383C30.6268 27.781 31.3333 26.8683 31.3333 25.5721V1.83337ZM19.1449 19.1077L19.1329 19.1141L19.1213 19.1211L15.2917 21.4315V6.70837H25.9612V21.4332L22.0242 19.0514L21.9998 19.0366L21.9738 19.0247C21.5277 18.8201 21.0403 18.7212 20.5497 18.7356C20.059 18.75 19.5783 18.8773 19.1449 19.1077Z" fill="url(#paint0_linear_20_60)" stroke="url(#paint1_linear_20_60)"/>
<defs>
<linearGradient id="paint0_linear_20_60" x1="25" y1="1.83337" x2="25" y2="60.1667" gradientUnits="userSpaceOnUse">
<stop stop-color="#AE1010" stop-opacity="0.88"/>
<stop offset="1" stop-color="#AE1010" stop-opacity="0"/>
</linearGradient>
<linearGradient id="paint1_linear_20_60" x1="25" y1="1.83337" x2="25" y2="60.1667" gradientUnits="userSpaceOnUse">
<stop stop-color="#AE1010" stop-opacity="0.88"/>
<stop offset="1" stop-color="#AE1010" stop-opacity="0"/>
</linearGradient>
</defs>
</svg>
