<svg width="20" height="15" viewBox="0 0 20 15" fill="none" xmlns="http://www.w3.org/2000/svg">
<path d="M2.61257 0.583374C1.63082 0.583374 0.833316 1.38087 0.833316 2.36262V7.00004C0.83169 8.85084 1.52995 10.6338 2.78802 11.9913C4.04609 13.3487 5.77092 14.1803 7.61651 14.3192C9.46209 14.458 11.2919 13.8939 12.7389 12.7399C14.1859 11.5859 15.1431 9.9275 15.4184 8.09729H16.0949C16.8998 8.08338 17.667 7.75388 18.2313 7.17975C18.7956 6.60563 19.1118 5.83284 19.1118 5.02783C19.1118 4.22283 18.7956 3.45003 18.2313 2.87591C17.667 2.30179 16.8998 1.97228 16.0949 1.95837H15.4532C15.2699 1.17004 14.5641 0.583374 13.7207 0.583374H2.61165H2.61257ZM2.20832 2.36262C2.20832 2.13987 2.38982 1.95837 2.61257 1.95837H13.7216C13.9444 1.95837 14.1259 2.13987 14.1259 2.36262V7.00004C14.1259 8.58029 13.4981 10.0958 12.3807 11.2132C11.2633 12.3306 9.74781 12.9584 8.16757 12.9584C6.58732 12.9584 5.07179 12.3306 3.95439 11.2132C2.83698 10.0958 2.20923 8.58029 2.20923 7.00004V2.36262H2.20832ZM15.5 3.33337H16.0949C16.3207 3.32812 16.5453 3.36807 16.7555 3.45086C16.9657 3.53365 17.1572 3.65763 17.3188 3.81549C17.4804 3.97336 17.6088 4.16193 17.6964 4.37012C17.7841 4.57832 17.8292 4.80194 17.8292 5.02783C17.8292 5.25373 17.7841 5.47735 17.6964 5.68554C17.6088 5.89374 17.4804 6.08231 17.3188 6.24017C17.1572 6.39804 16.9657 6.52201 16.7555 6.60481C16.5453 6.6876 16.3207 6.72754 16.0949 6.72229H15.5V3.33337Z" fill="black"/>
</svg>
