<svg width="16" height="17" viewBox="0 0 16 17" fill="none" xmlns="http://www.w3.org/2000/svg">
<path d="M8.46284 3.77558H7.54005C7.45564 3.77558 7.38657 3.84675 7.38657 3.93372V9.3757C7.38657 9.42709 7.4096 9.47454 7.44988 9.50419L10.6211 11.8901C10.6902 11.9415 10.7861 11.9277 10.836 11.8565L11.3847 11.0856C11.4365 11.0124 11.4211 10.9136 11.3521 10.8642L8.61632 8.82616V3.93372C8.61632 3.84675 8.54725 3.77558 8.46284 3.77558ZM12.6797 5.26209L15.6878 6.01919C15.7838 6.04291 15.8778 5.96779 15.8778 5.86698L15.8931 2.67454C15.8931 2.5421 15.7454 2.46698 15.6456 2.55L12.6221 4.98337C12.5993 5.00159 12.5819 5.02608 12.5719 5.05403C12.562 5.08198 12.5599 5.11225 12.5659 5.14137C12.5719 5.17048 12.5858 5.19726 12.6059 5.21862C12.626 5.23997 12.6516 5.25504 12.6797 5.26209ZM15.897 11.2141L14.8092 10.8286C14.7712 10.8152 14.7297 10.8176 14.6935 10.8354C14.6573 10.8531 14.6293 10.8847 14.6154 10.9235C14.579 11.0243 14.5406 11.1231 14.5003 11.222C14.1588 12.0542 13.6696 12.8034 13.0442 13.4458C12.4257 14.0851 11.6927 14.5946 10.8859 14.9462C10.0501 15.3103 9.1516 15.4972 8.24414 15.4957C7.3271 15.4957 6.43885 15.3119 5.60239 14.9462C4.79555 14.5946 4.06258 14.0851 3.4441 13.4458C2.82059 12.8034 2.33138 12.0542 1.98797 11.222C1.63654 10.3603 1.45648 9.43469 1.45847 8.5C1.45847 7.55512 1.63689 6.63791 1.99181 5.77605C2.3333 4.94384 2.82251 4.19465 3.44794 3.55221C4.06642 2.91297 4.79939 2.40344 5.60623 2.05186C6.43885 1.68616 7.32902 1.50233 8.24605 1.50233C9.16309 1.50233 10.0513 1.68616 10.8878 2.05186C11.6946 2.40344 12.4276 2.91297 13.0461 3.55221C13.2418 3.75582 13.426 3.96733 13.5948 4.1907L14.742 3.26558C13.2322 1.27698 10.882 -0.00197446 8.24222 2.28816e-06C3.64554 0.00197903 -0.0456174 3.84872 0.000426118 8.58698C0.0464696 13.2422 3.72036 17 8.24605 17C11.8048 17 14.836 14.6753 15.991 11.4197C16.0197 11.3366 15.9775 11.2437 15.897 11.2141Z" fill="#363636"/>
</svg>
