<svg width="13" height="13" viewBox="0 0 13 13" fill="none" xmlns="http://www.w3.org/2000/svg">
<path d="M10.8333 7.36668V6.50002C10.8333 6.27016 10.742 6.04972 10.5795 5.88719C10.417 5.72466 10.1965 5.63335 9.96668 5.63335H1.30002C1.07016 5.63335 0.849722 5.72466 0.68719 5.88719C0.524659 6.04972 0.43335 6.27016 0.43335 6.50002V11.7C0.43335 11.9299 0.524659 12.1503 0.68719 12.3128C0.849722 12.4754 1.07016 12.5667 1.30002 12.5667H9.96668C10.1965 12.5667 10.417 12.4754 10.5795 12.3128C10.742 12.1503 10.8333 11.9299 10.8333 11.7V10.8333M10.8333 7.36668H7.36668C6.90697 7.36668 6.46609 7.5493 6.14103 7.87436C5.81597 8.19943 5.63335 8.64031 5.63335 9.10002C5.63335 9.55972 5.81597 10.0006 6.14103 10.3257C6.46609 10.6507 6.90697 10.8333 7.36668 10.8333H10.8333M10.8333 7.36668C11.2931 7.36668 11.7339 7.5493 12.059 7.87436C12.3841 8.19943 12.5667 8.64031 12.5667 9.10002C12.5667 9.55972 12.3841 10.0006 12.059 10.3257C11.7339 10.6507 11.2931 10.8333 10.8333 10.8333M3.03335 5.63335V3.03335C3.03335 2.34379 3.30728 1.68247 3.79487 1.19487C4.28247 0.707277 4.94379 0.43335 5.63335 0.43335C6.32291 0.43335 6.98423 0.707277 7.47183 1.19487C7.95942 1.68247 8.23335 2.34379 8.23335 3.03335V5.63335M10.4 9.10002H11.2667M8.66668 9.10002H9.53335M6.93335 9.10002H7.80002" stroke="black"/>
</svg>
