<svg width="14" height="12" viewBox="0 0 14 12" fill="none" xmlns="http://www.w3.org/2000/svg">
<path d="M3.66499 0C2.76899 0 1.98199 0.596 1.73899 1.459L0.0789867 7.357C-0.00799268 7.66635 -0.0221137 7.99164 0.0377314 8.30737C0.0975766 8.62309 0.22976 8.92065 0.423913 9.17671C0.618065 9.43277 0.868906 9.64037 1.15676 9.78321C1.44461 9.92605 1.76164 10.0003 2.08299 10H11.917C12.2383 10.0003 12.5554 9.92605 12.8432 9.78321C13.1311 9.64037 13.3819 9.43277 13.5761 9.17671C13.7702 8.92065 13.9024 8.62309 13.9622 8.30737C14.0221 7.99164 14.008 7.66635 13.921 7.357L12.261 1.459C12.1428 1.03913 11.8907 0.66936 11.5431 0.405982C11.1954 0.142604 10.7712 4.30623e-05 10.335 0H3.66499ZM2.70199 1.73C2.76089 1.51993 2.88689 1.33489 3.06075 1.20309C3.23462 1.07129 3.44681 0.99997 3.66499 1H10.335C10.5532 0.99997 10.7654 1.07129 10.9392 1.20309C11.1131 1.33489 11.2391 1.51993 11.298 1.73L12.958 7.628C13.0031 7.78856 13.0104 7.95738 12.9793 8.12123C12.9482 8.28508 12.8796 8.4395 12.7789 8.57241C12.6781 8.70531 12.548 8.81308 12.3986 8.88726C12.2493 8.96145 12.0848 9.00003 11.918 9H2.08199C1.91522 9.00003 1.7507 8.96145 1.60134 8.88726C1.45198 8.81308 1.32183 8.70531 1.22109 8.57241C1.12034 8.4395 1.05175 8.28508 1.02068 8.12123C0.989603 7.95738 0.996897 7.78856 1.04199 7.628L2.70199 1.729V1.73ZM3.49699 11C3.36438 11 3.2372 11.0527 3.14343 11.1464C3.04966 11.2402 2.99699 11.3674 2.99699 11.5C2.99699 11.6326 3.04966 11.7598 3.14343 11.8536C3.2372 11.9473 3.36438 12 3.49699 12H10.502C10.6346 12 10.7618 11.9473 10.8555 11.8536C10.9493 11.7598 11.002 11.6326 11.002 11.5C11.002 11.3674 10.9493 11.2402 10.8555 11.1464C10.7618 11.0527 10.6346 11 10.502 11H3.49699Z" fill="black"/>
</svg>
