<svg width="38" height="36" viewBox="0 0 38 36" fill="none" xmlns="http://www.w3.org/2000/svg">
<path d="M7.16667 8.83337H32.4483C32.9606 8.83339 33.4672 8.94075 33.9354 9.14853C34.4037 9.35631 34.8232 9.6599 35.1669 10.0397C35.5106 10.4196 35.771 10.8672 35.9311 11.3538C36.0912 11.8404 36.1476 12.3551 36.0967 12.8649L34.9967 23.8649C34.9062 24.7696 34.4828 25.6085 33.8086 26.2187C33.1344 26.8288 32.2576 27.1667 31.3483 27.1667H13.84C12.992 27.167 12.1702 26.8735 11.5143 26.336C10.8585 25.7984 10.4092 25.0502 10.243 24.2187L7.16667 8.83337Z" stroke="#AE1010" stroke-width="3" stroke-linejoin="round"/>
<path d="M7.16667 8.83333L5.68167 2.88783C5.58236 2.49138 5.35342 2.13948 5.03122 1.88803C4.70902 1.63659 4.31204 1.50001 3.90334 1.5H1.66667M12.6667 34.5H16.3333M27.3333 34.5H31" stroke="#AE1010" stroke-width="3" stroke-linecap="round" stroke-linejoin="round"/>
</svg>
